<svg xmlns="http://www.w3.org/2000/svg" version="1.1" xmlns:xlink="http://www.w3.org/1999/xlink" xmlns:svgjs="http://svgjs.dev/svgjs" width="2000" height="1500" viewBox="0 0 2000 1500"><rect width="2000" height="1500" fill="#ffffff"></rect><g transform="matrix(0.75,0,0,0.75,249.090909090909,631.1093293539996)"><svg viewBox="0 0 396 63" data-background-color="#ffffff" preserveAspectRatio="xMidYMid meet" height="318" width="2000" xmlns="http://www.w3.org/2000/svg" xmlns:xlink="http://www.w3.org/1999/xlink"><g id="tight-bounds" transform="matrix(1,0,0,1,0.2400000000000091,-0.09491718784894942)"><svg viewBox="0 0 395.52 63.18983437569789" height="63.18983437569789" width="395.52"><g><svg viewBox="0 0 530.0610227892138 84.68463854941203" height="63.18983437569789" width="395.52"><g transform="matrix(1,0,0,1,134.54102278921377,0.9390266761355761)"><svg viewBox="0 0 395.52 82.80658519714088" height="82.80658519714088" width="395.52"><g id="textblocktransform"><svg viewBox="0 0 395.52 82.80658519714088" height="82.80658519714088" width="395.52" id="textblock"><g><svg viewBox="0 0 395.52 82.80658519714088" height="82.80658519714088" width="395.52"><g transform="matrix(1,0,0,1,0,0)"><svg width="395.52" viewBox="0.25 -36.83 216.82 45.41" height="82.80658519714088" data-palette-color="#001f3f"><g class="wordmark-text-0" data-fill-palette-color="primary" id="text-0"><path d="M19.2-22.88L18.07-21.28Q17.88-20.98 17.68-20.84 17.48-20.7 17.18-20.7L17.18-20.7Q16.82-20.7 16.41-20.98 16-21.25 15.41-21.59 14.83-21.93 13.98-22.21 13.13-22.5 11.93-22.5L11.93-22.5Q10.8-22.5 9.88-22.19 8.95-21.88 8.28-21.33 7.6-20.78 7.24-20.04 6.88-19.3 6.88-18.48L6.88-18.48Q6.88-17.3 7.65-16.6 8.43-15.9 9.6-15.39 10.78-14.88 12.14-14.4 13.5-13.93 14.68-13.2 15.85-12.48 16.63-11.35 17.4-10.23 17.4-8.43L17.4-8.43Q17.4-6.68 16.71-5.08 16.03-3.48 14.74-2.26 13.45-1.05 11.64-0.33 9.83 0.4 7.58 0.4L7.58 0.4Q5.15 0.4 3.29-0.46 1.43-1.33 0.25-2.68L0.25-2.68 1.35-4.38Q1.55-4.7 1.83-4.88 2.1-5.05 2.53-5.05L2.53-5.05Q2.93-5.05 3.33-4.7 3.73-4.35 4.33-3.91 4.93-3.48 5.84-3.13 6.75-2.78 8.15-2.78L8.15-2.78Q9.38-2.78 10.36-3.15 11.35-3.53 12.04-4.15 12.73-4.78 13.09-5.61 13.45-6.45 13.45-7.4L13.45-7.4Q13.45-8.68 12.68-9.43 11.9-10.18 10.73-10.68 9.55-11.18 8.2-11.61 6.85-12.05 5.68-12.74 4.5-13.43 3.73-14.53 2.95-15.63 2.95-17.45L2.95-17.45Q2.95-19.05 3.59-20.54 4.23-22.03 5.43-23.18 6.63-24.33 8.34-25.01 10.05-25.7 12.2-25.7L12.2-25.7Q14.48-25.7 16.21-24.94 17.95-24.18 19.2-22.88L19.2-22.88ZM25.92-36.83L30.3-36.83 27.65-15.15 28.42-15.15Q28.92-15.15 29.25-15.29 29.57-15.43 29.97-15.85L29.97-15.85 38.35-24.43Q38.75-24.83 39.12-25.08 39.5-25.33 40.1-25.33L40.1-25.33 44.02-25.33 34.25-15.4Q33.87-15 33.51-14.66 33.15-14.33 32.72-14.08L32.72-14.08Q33.12-13.78 33.4-13.38 33.67-12.98 33.95-12.5L33.95-12.5 41.55 0 37.72 0Q37.17 0 36.84-0.2 36.5-0.4 36.22-0.88L36.22-0.88 29.77-11.25Q29.45-11.75 29.14-11.93 28.82-12.1 28.12-12.1L28.12-12.1 27.27-12.1 25.8 0 21.4 0 25.92-36.83ZM48.84-25.33L53.22-25.33 50.17 0 45.8 0 48.84-25.33ZM54.9-33.27L54.9-33.27Q54.9-32.63 54.63-32.06 54.37-31.5 53.93-31.06 53.5-30.63 52.95-30.38 52.4-30.13 51.8-30.13L51.8-30.13Q51.22-30.13 50.67-30.38 50.12-30.63 49.71-31.06 49.3-31.5 49.05-32.06 48.8-32.63 48.8-33.27L48.8-33.27Q48.8-33.93 49.05-34.5 49.3-35.08 49.72-35.51 50.15-35.95 50.7-36.21 51.25-36.48 51.82-36.48L51.82-36.48Q52.42-36.48 52.97-36.23 53.52-35.98 53.96-35.54 54.4-35.1 54.65-34.51 54.9-33.93 54.9-33.27ZM62.17 0L57.79 0 62.27-36.83 66.64-36.83 62.17 0ZM74.04 0L69.67 0 74.14-36.83 78.52-36.83 74.04 0ZM98.54-22.88L97.41-21.28Q97.21-20.98 97.01-20.84 96.81-20.7 96.51-20.7L96.51-20.7Q96.16-20.7 95.75-20.98 95.34-21.25 94.75-21.59 94.16-21.93 93.31-22.21 92.46-22.5 91.26-22.5L91.26-22.5Q90.14-22.5 89.21-22.19 88.29-21.88 87.61-21.33 86.94-20.78 86.58-20.04 86.21-19.3 86.21-18.48L86.21-18.48Q86.21-17.3 86.99-16.6 87.76-15.9 88.94-15.39 90.11-14.88 91.48-14.4 92.84-13.93 94.01-13.2 95.19-12.48 95.96-11.35 96.74-10.23 96.74-8.43L96.74-8.43Q96.74-6.68 96.05-5.08 95.36-3.48 94.08-2.26 92.79-1.05 90.98-0.33 89.16 0.4 86.91 0.4L86.91 0.4Q84.49 0.4 82.63-0.46 80.76-1.33 79.59-2.68L79.59-2.68 80.69-4.38Q80.89-4.7 81.16-4.88 81.44-5.05 81.86-5.05L81.86-5.05Q82.26-5.05 82.66-4.7 83.06-4.35 83.66-3.91 84.26-3.48 85.18-3.13 86.09-2.78 87.49-2.78L87.49-2.78Q88.71-2.78 89.7-3.15 90.69-3.53 91.38-4.15 92.06-4.78 92.43-5.61 92.79-6.45 92.79-7.4L92.79-7.4Q92.79-8.68 92.01-9.43 91.24-10.18 90.06-10.68 88.89-11.18 87.54-11.61 86.19-12.05 85.01-12.74 83.84-13.43 83.06-14.53 82.29-15.63 82.29-17.45L82.29-17.45Q82.29-19.05 82.93-20.54 83.56-22.03 84.76-23.18 85.96-24.33 87.68-25.01 89.39-25.7 91.54-25.7L91.54-25.7Q93.81-25.7 95.55-24.94 97.29-24.18 98.54-22.88L98.54-22.88ZM123.79-25.33L106.69 7.55Q106.16 8.58 105.14 8.58L105.14 8.58 101.89 8.58 107.36-1.5 100.81-25.33 104.49-25.33Q105.01-25.33 105.27-25.06 105.54-24.8 105.64-24.4L105.64-24.4 109.71-8.45Q109.84-7.93 109.91-7.4 109.99-6.88 110.04-6.35L110.04-6.35Q110.26-6.88 110.47-7.41 110.69-7.95 110.96-8.47L110.96-8.47 118.96-24.45Q119.16-24.85 119.52-25.09 119.89-25.33 120.26-25.33L120.26-25.33 123.79-25.33ZM128.81 0L124.36 0 127.38-25.35 129.61-25.35Q131.11-25.35 131.11-23.85L131.11-23.85 130.73-18.95Q132.76-22.3 135.3-24 137.83-25.7 140.56-25.7L140.56-25.7Q143.38-25.7 144.95-23.8 146.51-21.9 146.51-18.25L146.51-18.25Q146.51-17.75 146.48-17.23 146.46-16.7 146.38-16.13L146.38-16.13 144.48 0 140.03 0 141.93-16.13Q141.98-16.63 142.02-17.09 142.06-17.55 142.06-17.98L142.06-17.98Q142.06-20.03 141.3-21.01 140.53-22 138.91-22L138.91-22Q137.71-22 136.47-21.35 135.23-20.7 134.08-19.51 132.93-18.32 131.95-16.64 130.96-14.95 130.26-12.88L130.26-12.88 128.81 0ZM169.36-4.55L169.36-4.55Q168.06-3.13 166.89-2.18 165.73-1.23 164.56-0.66 163.38-0.1 162.12 0.13 160.86 0.35 159.41 0.35L159.41 0.35Q157.21 0.35 155.52-0.4 153.83-1.15 152.69-2.51 151.56-3.88 150.97-5.79 150.38-7.7 150.38-10L150.38-10Q150.38-13.08 151.34-15.9 152.31-18.73 154.03-20.9 155.76-23.08 158.13-24.38 160.51-25.68 163.36-25.68L163.36-25.68Q165.86-25.68 167.56-24.79 169.26-23.9 170.53-22.2L170.53-22.2 169.13-20.53Q168.98-20.33 168.76-20.2 168.53-20.08 168.26-20.08L168.26-20.08Q167.91-20.08 167.57-20.39 167.23-20.7 166.69-21.09 166.16-21.48 165.34-21.79 164.53-22.1 163.26-22.1L163.26-22.1Q161.53-22.1 159.99-21.16 158.46-20.23 157.31-18.6 156.16-16.98 155.49-14.75 154.83-12.53 154.83-9.98L154.83-9.98Q154.83-8.43 155.18-7.16 155.53-5.9 156.23-5.01 156.93-4.13 157.94-3.64 158.96-3.15 160.31-3.15L160.31-3.15Q161.43-3.15 162.31-3.39 163.18-3.63 163.86-3.98 164.53-4.33 165.04-4.74 165.56-5.15 165.97-5.5 166.38-5.85 166.72-6.09 167.06-6.33 167.41-6.33L167.41-6.33Q167.91-6.33 168.26-5.9L168.26-5.9 169.36-4.55ZM171.65-2.75L171.65-2.75Q171.65-3.4 171.89-3.98 172.13-4.55 172.55-4.98 172.98-5.4 173.54-5.65 174.1-5.9 174.78-5.9L174.78-5.9Q175.43-5.9 175.99-5.65 176.55-5.4 176.98-4.98 177.4-4.55 177.65-3.98 177.9-3.4 177.9-2.75L177.9-2.75Q177.9-2.08 177.65-1.51 177.4-0.95 176.98-0.53 176.55-0.1 175.99 0.14 175.43 0.38 174.78 0.38L174.78 0.38Q174.1 0.38 173.54 0.14 172.98-0.1 172.55-0.53 172.13-0.95 171.89-1.51 171.65-2.08 171.65-2.75ZM186.58-25.33L190.95-25.33 187.9 0 183.53 0 186.58-25.33ZM192.63-33.27L192.63-33.27Q192.63-32.63 192.36-32.06 192.1-31.5 191.66-31.06 191.23-30.63 190.68-30.38 190.13-30.13 189.53-30.13L189.53-30.13Q188.95-30.13 188.4-30.38 187.85-30.63 187.44-31.06 187.03-31.5 186.78-32.06 186.53-32.63 186.53-33.27L186.53-33.27Q186.53-33.93 186.78-34.5 187.03-35.08 187.45-35.51 187.88-35.95 188.43-36.21 188.98-36.48 189.55-36.48L189.55-36.48Q190.15-36.48 190.7-36.23 191.25-35.98 191.69-35.54 192.13-35.1 192.38-34.51 192.63-33.93 192.63-33.27ZM204.52-3.13L204.52-3.13Q206.35-3.13 207.85-4.13 209.35-5.13 210.4-6.79 211.45-8.45 212.02-10.63 212.6-12.8 212.6-15.18L212.6-15.18Q212.6-18.68 211.22-20.45 209.85-22.23 207.25-22.23L207.25-22.23Q205.4-22.23 203.91-21.24 202.42-20.25 201.37-18.59 200.32-16.93 199.75-14.75 199.17-12.58 199.17-10.2L199.17-10.2Q199.17-6.7 200.54-4.91 201.9-3.13 204.52-3.13ZM204.12 0.35L204.12 0.35Q202.05 0.35 200.32-0.36 198.6-1.07 197.35-2.43 196.1-3.78 195.4-5.73 194.7-7.68 194.7-10.18L194.7-10.18Q194.7-13.38 195.7-16.2 196.7-19.03 198.44-21.15 200.17-23.28 202.54-24.5 204.9-25.73 207.65-25.73L207.65-25.73Q209.72-25.73 211.45-25.01 213.17-24.3 214.42-22.95 215.67-21.6 216.37-19.64 217.07-17.68 217.07-15.2L217.07-15.2Q217.07-12.03 216.07-9.2 215.07-6.38 213.34-4.25 211.6-2.13 209.22-0.89 206.85 0.35 204.12 0.35Z" fill="#001f3f" data-fill-palette-color="primary"></path></g></svg></g></svg></g></svg></g></svg></g><g><svg viewBox="0 0 114.99237538221354 84.68463854941203" height="84.68463854941203" width="114.99237538221354"><g><svg xmlns="http://www.w3.org/2000/svg" xmlns:xlink="http://www.w3.org/1999/xlink" xmlns:a="http://ns.adobe.com/AdobeSVGViewerExtensions/3.0/" version="1.1" x="0" y="0" viewBox="0.001552363777185619 -0.00010033361626438086 81.38554261456213 59.93532385563714" enable-background="new -10 -20 100 100" xml:space="preserve" height="84.68463854941203" width="114.99237538221354" class="icon-icon-0" data-fill-palette-color="accent" id="icon-0"><path d="M62.457 8.682l0.029 0.029 0.017 0.017 0.006 0.006 0.02 0.02 0.004 0.003 0.006 0.007c0.056 0.036 0.065 0.059 0.098 0.091 5.549 5.549 8.746 13.151 8.866 21.005l8.846-0.063c0.421 0.001 0.81 0.257 0.957 0.636 0.16 0.387 0.082 0.835-0.223 1.139l-14.46 14.461c-0.406 0.406-1.067 0.403-1.467 0.003L50.869 31.75l-0.032-0.033c-0.406-0.406-0.406-1.063 0-1.469 0.272-0.272 0.657-0.361 1.005-0.271l8.717-0.053c-0.091-5.047-2.086-9.759-5.763-13.434-7.545-7.456-19.799-7.421-27.42 0.2-2.334-2.335-2.502-2.715-7.632-7.845C31.473-2.884 50.616-2.958 62.457 8.682" fill="#1a91f0" data-fill-palette-color="accent"></path><path d="M18.931 51.255l-0.031-0.03-0.016-0.017-0.006-0.007-0.018-0.018-0.005-0.005-0.006-0.007c-0.057-0.03-0.063-0.057-0.095-0.088-5.552-5.552-8.749-13.146-8.868-21.002l-8.845 0.06c-0.423 0-0.811-0.259-0.959-0.638-0.161-0.385-0.077-0.837 0.222-1.135l14.463-14.464c0.405-0.405 1.063-0.403 1.467 0l14.281 14.282 0.034 0.034c0.405 0.405 0.405 1.063 0 1.468-0.274 0.274-0.66 0.363-1 0.265l-8.72 0.061c0.087 5.045 2.086 9.753 5.762 13.429 7.544 7.462 19.799 7.424 27.417-0.194 2.282 2.281 5.12 5.335 7.63 7.846C49.916 62.817 30.773 62.893 18.931 51.255" fill="#1a91f0" data-fill-palette-color="accent"></path></svg></g></svg></g></svg></g><defs></defs></svg><rect width="395.52" height="63.18983437569789" fill="none" stroke="none" visibility="hidden"></rect></g></svg></g></svg>